<svg id="visual" viewBox="0 0 450 900" width="450" height="900" xmlns="http://www.w3.org/2000/svg" version="1.1"><rect x="0" y="0" width="450" height="900" fill="#F9EA9A"></rect><defs><linearGradient id="grad1_0" x1="0%" y1="100%" x2="100%" y2="0%"><stop offset="30%" stop-color="#f98948" stop-opacity="1"></stop><stop offset="70%" stop-color="#f98948" stop-opacity="1"></stop></linearGradient></defs><defs><linearGradient id="grad1_1" x1="0%" y1="100%" x2="100%" y2="0%"><stop offset="30%" stop-color="#f98948" stop-opacity="1"></stop><stop offset="70%" stop-color="#f9994e" stop-opacity="1"></stop></linearGradient></defs><defs><linearGradient id="grad1_2" x1="0%" y1="100%" x2="100%" y2="0%"><stop offset="30%" stop-color="#f9a756" stop-opacity="1"></stop><stop offset="70%" stop-color="#f9994e" stop-opacity="1"></stop></linearGradient></defs><defs><linearGradient id="grad1_3" x1="0%" y1="100%" x2="100%" y2="0%"><stop offset="30%" stop-color="#f9a756" stop-opacity="1"></stop><stop offset="70%" stop-color="#f9b660" stop-opacity="1"></stop></linearGradient></defs><defs><linearGradient id="grad1_4" x1="0%" y1="100%" x2="100%" y2="0%"><stop offset="30%" stop-color="#f9c36d" stop-opacity="1"></stop><stop offset="70%" stop-color="#f9b660" stop-opacity="1"></stop></linearGradient></defs><defs><linearGradient id="grad1_5" x1="0%" y1="100%" x2="100%" y2="0%"><stop offset="30%" stop-color="#f9c36d" stop-opacity="1"></stop><stop offset="70%" stop-color="#f8d17a" stop-opacity="1"></stop></linearGradient></defs><defs><linearGradient id="grad1_6" x1="0%" y1="100%" x2="100%" y2="0%"><stop offset="30%" stop-color="#f8de8a" stop-opacity="1"></stop><stop offset="70%" stop-color="#f8d17a" stop-opacity="1"></stop></linearGradient></defs><defs><linearGradient id="grad1_7" x1="0%" y1="100%" x2="100%" y2="0%"><stop offset="30%" stop-color="#f8de8a" stop-opacity="1"></stop><stop offset="70%" stop-color="#f9ea9a" stop-opacity="1"></stop></linearGradient></defs><defs><linearGradient id="grad2_0" x1="0%" y1="100%" x2="100%" y2="0%"><stop offset="30%" stop-color="#f98948" stop-opacity="1"></stop><stop offset="70%" stop-color="#f98948" stop-opacity="1"></stop></linearGradient></defs><defs><linearGradient id="grad2_1" x1="0%" y1="100%" x2="100%" y2="0%"><stop offset="30%" stop-color="#f9994e" stop-opacity="1"></stop><stop offset="70%" stop-color="#f98948" stop-opacity="1"></stop></linearGradient></defs><defs><linearGradient id="grad2_2" x1="0%" y1="100%" x2="100%" y2="0%"><stop offset="30%" stop-color="#f9994e" stop-opacity="1"></stop><stop offset="70%" stop-color="#f9a756" stop-opacity="1"></stop></linearGradient></defs><defs><linearGradient id="grad2_3" x1="0%" y1="100%" x2="100%" y2="0%"><stop offset="30%" stop-color="#f9b660" stop-opacity="1"></stop><stop offset="70%" stop-color="#f9a756" stop-opacity="1"></stop></linearGradient></defs><defs><linearGradient id="grad2_4" x1="0%" y1="100%" x2="100%" y2="0%"><stop offset="30%" stop-color="#f9b660" stop-opacity="1"></stop><stop offset="70%" stop-color="#f9c36d" stop-opacity="1"></stop></linearGradient></defs><defs><linearGradient id="grad2_5" x1="0%" y1="100%" x2="100%" y2="0%"><stop offset="30%" stop-color="#f8d17a" stop-opacity="1"></stop><stop offset="70%" stop-color="#f9c36d" stop-opacity="1"></stop></linearGradient></defs><defs><linearGradient id="grad2_6" x1="0%" y1="100%" x2="100%" y2="0%"><stop offset="30%" stop-color="#f8d17a" stop-opacity="1"></stop><stop offset="70%" stop-color="#f8de8a" stop-opacity="1"></stop></linearGradient></defs><defs><linearGradient id="grad2_7" x1="0%" y1="100%" x2="100%" y2="0%"><stop offset="30%" stop-color="#f9ea9a" stop-opacity="1"></stop><stop offset="70%" stop-color="#f8de8a" stop-opacity="1"></stop></linearGradient></defs><g transform="translate(450, 900)"><path d="M-405 0C-364 -37 -322.9 -74 -310.4 -128.6C-297.9 -183.1 -313.9 -255.3 -286.4 -286.4C-258.8 -317.5 -187.8 -307.6 -132.8 -320.6C-77.8 -333.5 -38.9 -369.3 0 -405L0 0Z" fill="#f9e492"></path><path d="M-354.4 0C-318.5 -32.4 -282.6 -64.8 -271.6 -112.5C-260.7 -160.2 -274.7 -223.3 -250.6 -250.6C-226.5 -277.8 -164.3 -269.2 -116.2 -280.5C-68.1 -291.8 -34 -323.1 0 -354.4L0 0Z" fill="#f8d782"></path><path d="M-303.7 0C-273 -27.8 -242.2 -55.5 -232.8 -96.4C-223.4 -137.4 -235.4 -191.4 -214.8 -214.8C-194.1 -238.1 -140.8 -230.7 -99.6 -240.4C-58.4 -250.1 -29.2 -276.9 0 -303.7L0 0Z" fill="#f8ca73"></path><path d="M-253.1 0C-227.5 -23.1 -201.8 -46.3 -194 -80.4C-186.2 -114.5 -196.2 -159.5 -179 -179C-161.8 -198.4 -117.4 -192.3 -83 -200.4C-48.6 -208.5 -24.3 -230.8 0 -253.1L0 0Z" fill="#f9bd66"></path><path d="M-202.5 0C-182 -18.5 -161.5 -37 -155.2 -64.3C-149 -91.6 -157 -127.6 -143.2 -143.2C-129.4 -158.8 -93.9 -153.8 -66.4 -160.3C-38.9 -166.8 -19.5 -184.6 0 -202.5L0 0Z" fill="#f9af5b"></path><path d="M-151.9 0C-136.5 -13.9 -121.1 -27.8 -116.4 -48.2C-111.7 -68.7 -117.7 -95.7 -107.4 -107.4C-97.1 -119.1 -70.4 -115.4 -49.8 -120.2C-29.2 -125.1 -14.6 -138.5 0 -151.9L0 0Z" fill="#f9a052"></path><path d="M-101.2 0C-91 -9.3 -80.7 -18.5 -77.6 -32.1C-74.5 -45.8 -78.5 -63.8 -71.6 -71.6C-64.7 -79.4 -46.9 -76.9 -33.2 -80.1C-19.5 -83.4 -9.7 -92.3 0 -101.2L0 0Z" fill="#f9914b"></path><path d="M-50.6 0C-45.5 -4.6 -40.4 -9.3 -38.8 -16.1C-37.2 -22.9 -39.2 -31.9 -35.8 -35.8C-32.4 -39.7 -23.5 -38.5 -16.6 -40.1C-9.7 -41.7 -4.9 -46.2 0 -50.6L0 0Z" fill="#f98948"></path></g><g transform="translate(0, 0)"><path d="M405 0C360.8 36.3 316.6 72.5 304 125.9C291.3 179.3 310.3 249.7 286.4 286.4C262.5 323 195.7 325.9 140.8 340C86 354.1 43 379.6 0 405L0 0Z" fill="#f9e492"></path><path d="M354.4 0C315.7 31.7 277 63.5 266 110.2C254.9 156.9 271.5 218.5 250.6 250.6C229.7 282.6 171.2 285.1 123.2 297.5C75.2 309.9 37.6 332.1 0 354.4L0 0Z" fill="#f8d782"></path><path d="M303.8 0C270.6 27.2 237.4 54.4 228 94.4C218.5 134.5 232.7 187.3 214.8 214.8C196.9 242.3 146.8 244.4 105.6 255C64.5 265.6 32.2 284.7 0 303.8L0 0Z" fill="#f8ca73"></path><path d="M253.1 0C225.5 22.7 197.9 45.3 190 78.7C182.1 112 193.9 156.1 179 179C164 201.9 122.3 203.7 88 212.5C53.7 221.3 26.9 237.2 0 253.1L0 0Z" fill="#f9bd66"></path><path d="M202.5 0C180.4 18.1 158.3 36.3 152 63C145.7 89.6 155.1 124.9 143.2 143.2C131.2 161.5 97.9 162.9 70.4 170C43 177.1 21.5 189.8 0 202.5L0 0Z" fill="#f9af5b"></path><path d="M151.9 0C135.3 13.6 118.7 27.2 114 47.2C109.2 67.2 116.4 93.6 107.4 107.4C98.4 121.1 73.4 122.2 52.8 127.5C32.2 132.8 16.1 142.3 0 151.9L0 0Z" fill="#f9a052"></path><path d="M101.3 0C90.2 9.1 79.1 18.1 76 31.5C72.8 44.8 77.6 62.4 71.6 71.6C65.6 80.8 48.9 81.5 35.2 85C21.5 88.5 10.7 94.9 0 101.3L0 0Z" fill="#f9914b"></path><path d="M50.6 0C45.1 4.5 39.6 9.1 38 15.7C36.4 22.4 38.8 31.2 35.8 35.8C32.8 40.4 24.5 40.7 17.6 42.5C10.7 44.3 5.4 47.4 0 50.6L0 0Z" fill="#f98948"></path></g></svg>