<svg id="esyf7TiYcHl1" xmlns="http://www.w3.org/2000/svg" viewBox="0 0 450 900" shape-rendering="geometricPrecision" text-rendering="geometricPrecision"><rect width="450" height="900" rx="0" ry="0" fill="#f9ea9a"/><g transform="matrix(1.138345 0 0 2.078507 521.821802 911.640799)"><path d="M-405,0c41-37,82.1-74,94.6-128.6c12.5-54.5-3.5-126.7,24-157.8c27.6-31.1,98.6-21.2,153.6-34.2c55-12.9,93.9-48.7,132.8-84.4L0,0Z" fill="#f9e492"/><path d="M-354.4,0c35.9-32.4,71.8-64.8,82.8-112.5c10.9-47.7-3.1-110.8,21-138.1c24.1-27.2,86.3-18.6,134.4-29.9s82.2-42.6,116.2-73.9L0,0Z" fill="#f8d782"/><path d="M-303.7,0c30.7-27.8,61.5-55.5,70.9-96.4c9.4-41-2.6-95,18-118.4c20.7-23.3,74-15.9,115.2-25.6s70.4-36.5,99.6-63.3L0,0Z" fill="#f8ca73"/><path d="M-253.1,0c25.6-23.1,51.3-46.3,59.1-80.4s-2.2-79.1,15-98.6c17.2-19.4,61.6-13.3,96-21.4s58.7-30.4,83-52.7L0,0Z" fill="#f9bd66"/><path d="M-202.5,0c20.5-18.5,41-37,47.3-64.3c6.2-27.3-1.8-63.3,12-78.9s49.3-10.6,76.8-17.1s46.9-24.3,66.4-42.2L0,0Z" fill="#f9af5b"/><path d="M-151.9,0c15.4-13.9,30.8-27.8,35.5-48.2c4.7-20.5-1.3-47.5,9-59.2s37-8,57.6-12.8c20.6-4.9,35.2-18.3,49.8-31.7L0,0Z" fill="#f9a052"/><path d="M-101.2,0c10.2-9.3,20.5-18.5,23.6-32.1c3.1-13.7-.9-31.7,6-39.5s24.7-5.3,38.4-8.5c13.7-3.3,23.5-12.2,33.2-21.1L0,0Z" fill="#f9914b"/><path d="M-50.6,0c5.1-4.6,10.2-9.3,11.8-16.1s-.4-15.8,3-19.7s12.3-2.7,19.2-4.3s11.7-6.1,16.6-10.5L0,0Z" fill="#f98948"/></g><g transform="matrix(.972346 0 0 3.015765-102.493191-406.529442)"><path d="M405,0c-44.2,36.3-88.4,72.5-101,125.9-12.7,53.4,6.3,123.8-17.6,160.5-23.9,36.6-90.7,39.5-145.6,53.6C86,354.1,43,379.6,0,405L0,0Z" fill="#f9e492"/><path d="M354.4,0C315.7,31.7,277,63.5,266,110.2c-11.1,46.7,5.5,108.3-15.4,140.4-20.9,32-79.4,34.5-127.4,46.9s-85.6,34.6-123.2,56.9L0,0Z" fill="#f8d782"/><path d="M303.8,0C270.6,27.2,237.4,54.4,228,94.4c-9.5,40.1,4.7,92.9-13.2,120.4s-68,29.6-109.2,40.2C64.5,265.6,32.2,284.7,0,303.8L0,0Z" fill="#f8ca73"/><path d="M253.1,0C225.5,22.7,197.9,45.3,190,78.7c-7.9,33.3,3.9,77.4-11,100.3-15,22.9-56.7,24.7-91,33.5s-61.1,24.7-88,40.6L0,0Z" fill="#f9bd66"/><path d="M202.5,0C180.4,18.1,158.3,36.3,152,63c-6.3,26.6,3.1,61.9-8.8,80.2-12,18.3-45.3,19.7-72.8,26.8C43,177.1,21.5,189.8,0,202.5L0,0Z" fill="#f9af5b"/><path d="M151.9,0C135.3,13.6,118.7,27.2,114,47.2c-4.8,20,2.4,46.4-6.6,60.2-9,13.7-34,14.8-54.6,20.1s-36.7,14.8-52.8,24.4L0,0Z" fill="#f9a052"/><path d="M101.3,0C90.2,9.1,79.1,18.1,76,31.5c-3.2,13.3,1.6,30.9-4.4,40.1s-22.7,9.9-36.4,13.4-24.5,9.9-35.2,16.3L0,0Z" fill="#f9914b"/><path d="M50.6,0C45.1,4.5,39.6,9.1,38,15.7c-1.6,6.7.8,15.5-2.2,20.1s-11.3,4.9-18.2,6.7-12.2,4.9-17.6,8.1L0,0Z" fill="#f98948"/></g></svg>