<svg id="eXfvjsVGqzZ1" xmlns="http://www.w3.org/2000/svg" viewBox="0 0 512.562 443.891" shape-rendering="geometricPrecision" text-rendering="geometricPrecision"><g transform="matrix(.519534 0 0 0.519534 98.178954 224.755673)"><path d="M176.17182,-29.050781L304.3144,44.93359l128.14453-73.984371h-128.14453Z" fill="#5e35b1" stroke-width="8.66023" stroke-linecap="round" stroke-linejoin="round"/><path d="M304.3134,192.9005l.001-147.96691-128.14461-73.984241L240.24206,81.925776Z" fill="#d1c4e9" stroke-width="8.66023" stroke-linecap="round" stroke-linejoin="round"/><path d="M304.3154,192.9005l-.001-147.96691l128.14461-73.984241L368.38674,81.925776Z" fill="#9575cd" stroke-width="8.66023" stroke-linecap="round" stroke-linejoin="round"/><path d="M304.31615,192.90016l128.14258-73.98437l128.14453,73.98437h-128.14453Z" fill="#7e57c2" stroke-width="8.66023" stroke-linecap="round" stroke-linejoin="round"/><path d="M432.45968,-29.051124l-.001,147.966914l128.14461,73.98424L496.53102,81.9236Z" fill="#9575cd" stroke-width="8.66023" stroke-linecap="round" stroke-linejoin="round"/><path d="M48.02901,192.90029l128.14258-73.98437l128.14453,73.98437h-128.14453Z" fill="#7e57c2" stroke-width="8.66023" stroke-linecap="round" stroke-linejoin="round"/><path d="M176.17254,-29.050994l-.001,147.966914l128.14461,73.98424L240.24388,81.92373Z" fill="#9575cd" stroke-width="8.66023" stroke-linecap="round" stroke-linejoin="round"/><path d="M176.17187,-29.050539l128.14258-73.984371l128.14453,73.984371h-128.14453Z" fill="#7e57c2" stroke-width="8.66023" stroke-linecap="round" stroke-linejoin="round"/><path d="M304.3154,-251.00182l-.001,147.96691l128.14461,73.984241L368.38674,-140.0271Z" fill="#9575cd" stroke-width="8.66023" stroke-linecap="round" stroke-linejoin="round"/><path d="M176.17054,-29.050991l.001,147.966911L48.02693,192.90016L112.0992,81.923733Z" fill="#d1c4e9" stroke-width="8.66023" stroke-linecap="round" stroke-linejoin="round"/><path d="M432.45768,-29.051121l.001,147.966911-128.14461,73.98424L368.38634,81.923603Z" transform="translate(0 2)" fill="#d1c4e9" stroke-width="8.66023" stroke-linecap="round" stroke-linejoin="round"/><path d="M304.31345,-251.00182l.001,147.96691-128.14461,73.98424l64.07227-110.97643Z" fill="#d1c4e9" stroke-width="8.66023" stroke-linecap="round" stroke-linejoin="round"/></g></svg>